<svg xmlns="http://www.w3.org/2000/svg" width="96" height="96" viewBox="0 0 96 96">
  <rect width="96" height="96" rx="20" fill="#113CFC"/>
  <path d="M14 16h68v15H14z" fill="#F7D002"/>
  <path d="M14 65h68v15H14z" fill="#00A878"/>
  <path d="M20 28h56v40H20z" fill="#fff"/>
  <path d="M48 26c11 0 20 8.5 20 19 0 7.7-4.7 14.2-11.4 17.2V69h5.7v7H33.7v-7h5.7v-6.8C32.7 59.2 28 52.7 28 45c0-10.5 9-19 20-19Z" fill="#101114"/>
  <path d="M48 34c6.3 0 11.4 4.9 11.4 11S54.3 56 48 56s-11.4-4.9-11.4-11S41.7 34 48 34Z" fill="#FF2E1F"/>
</svg>
