<svg xmlns="http://www.w3.org/2000/svg" width="512" height="512" viewBox="0 0 512 512" role="img" aria-label="Bolao Betel 2026">
  <defs>
    <linearGradient id="roof" x1="112" y1="176" x2="400" y2="176" gradientUnits="userSpaceOnUse">
      <stop offset="0" stop-color="#113CFC"/>
      <stop offset=".48" stop-color="#00A878"/>
      <stop offset="1" stop-color="#7C2DFF"/>
    </linearGradient>
    <linearGradient id="arc" x1="104" y1="376" x2="408" y2="376" gradientUnits="userSpaceOnUse">
      <stop offset="0" stop-color="#113CFC"/>
      <stop offset=".5" stop-color="#7C2DFF"/>
      <stop offset="1" stop-color="#FF2E1F"/>
    </linearGradient>
    <filter id="softShadow" x="-20%" y="-20%" width="140%" height="140%" color-interpolation-filters="sRGB">
      <feDropShadow dx="0" dy="10" stdDeviation="12" flood-color="#020617" flood-opacity=".22"/>
    </filter>
  </defs>

  <rect width="512" height="512" rx="116" fill="#F8FAFC"/>
  <rect x="30" y="30" width="452" height="452" rx="92" fill="#FFFFFF" stroke="#E2E8F0" stroke-width="12"/>

  <g filter="url(#softShadow)">
    <path d="M102 245 256 126l154 119" fill="none" stroke="url(#roof)" stroke-width="30" stroke-linecap="round" stroke-linejoin="round"/>
    <path d="M394 174 444 213" fill="none" stroke="#7C2DFF" stroke-width="30" stroke-linecap="round"/>
    <path d="M155 198v-54h40v23" fill="none" stroke="#113CFC" stroke-width="20" stroke-linecap="round" stroke-linejoin="round"/>

    <path d="M138 285c-18 28-25 59-21 92" fill="none" stroke="#00A878" stroke-width="26" stroke-linecap="round"/>
    <path d="M374 285c18 28 25 59 21 92" fill="none" stroke="#FF2E1F" stroke-width="26" stroke-linecap="round"/>
    <path d="M146 405c38 31 78 47 120 48 38 1 72-9 100-28" fill="none" stroke="url(#arc)" stroke-width="26" stroke-linecap="round"/>

    <path d="M240 199h32v54h51v31h-51v103h-32V284h-51v-31h51z" fill="#F7D002"/>
    <path d="M240 199h32v54h51v31h-51v103h-32V284h-51v-31h51z" fill="none" stroke="#EAB308" stroke-width="6" stroke-linejoin="round"/>

    <path d="M157 286c0-35 20-55 52-55 28 0 47 16 47 41 0 16-8 28-24 36 19 7 30 22 30 43 0 30-22 50-55 50h-50zm43 95c17 0 27-10 27-27s-10-27-27-27h-9v54zm-9-76h10c14 0 22-9 22-24 0-14-8-23-22-23h-10z" fill="#0B1220"/>
    <path d="M305 231h50c32 0 52 20 52 55 0 16-8 28-24 36 19 7 30 22 30 43 0 30-22 50-55 50h-53zm43 154c17 0 27-10 27-27s-10-27-27-27h-9v54zm-9-76h10c14 0 22-9 22-24 0-14-8-23-22-23h-10z" fill="#0B1220"/>

    <g transform="translate(256 412)">
      <circle r="42" fill="#FFFFFF" stroke="#0B1220" stroke-width="10"/>
      <path d="M0-22 22-7 14 20h-28L-22-7z" fill="#0B1220"/>
      <path d="M0-41v19M40-12 22-7M25 34 14 20M-25 34-14 20M-40-12-22-7" fill="none" stroke="#0B1220" stroke-width="7" stroke-linecap="round"/>
    </g>
  </g>
</svg>
